<svg width="768" height="768" viewBox="0 0 768 768" xmlns="http://www.w3.org/2000/svg" role="img" aria-label="PrivaMed brand background">
  <defs>
    <linearGradient id="bgGradient" x1="0" y1="0" x2="1" y2="1">
      <stop offset="0%" stop-color="#f4f9ff" />
      <stop offset="100%" stop-color="#e6f0fb" />
    </linearGradient>
    <linearGradient id="shieldGradient" x1="0" y1="0" x2="0" y2="1">
      <stop offset="0%" stop-color="#8fb6df" stop-opacity="0.55" />
      <stop offset="100%" stop-color="#74a3d7" stop-opacity="0.35" />
    </linearGradient>
    <linearGradient id="iconGradient" x1="0" y1="0" x2="0" y2="1">
      <stop offset="0%" stop-color="#bcd4ee" stop-opacity="0.9" />
      <stop offset="100%" stop-color="#b0cbe8" stop-opacity="0.7" />
    </linearGradient>
    <pattern id="nodeGrid" width="120" height="120" patternUnits="userSpaceOnUse">
      <circle cx="4" cy="4" r="2" fill="#cddcf1" opacity="0.55" />
      <line x1="4" y1="4" x2="120" y2="4" stroke="#d5e2f4" stroke-width="0.5" opacity="0.45" />
      <line x1="4" y1="4" x2="4" y2="120" stroke="#d5e2f4" stroke-width="0.5" opacity="0.45" />
    </pattern>
  </defs>
  <rect width="768" height="768" fill="url(#bgGradient)" />
  <rect width="768" height="768" fill="url(#nodeGrid)" />
  <g transform="translate(90 100)">
    <rect width="140" height="140" rx="22" fill="url(#iconGradient)" opacity="0.38" />
    <rect x="190" y="210" width="150" height="150" rx="26" fill="url(#iconGradient)" opacity="0.45" />
    <rect x="420" y="380" width="170" height="170" rx="36" fill="url(#iconGradient)" opacity="0.42" />
  </g>
  <g transform="translate(110 140)" opacity="0.45" fill="#94b6da">
    <path d="M80 0c44 0 80 36 80 80s-36 80-80 80S0 124 0 80 36 0 80 0zm0 36c-24 0-44 20-44 44s20 44 44 44 44-20 44-44S104 36 80 36z"/>
    <rect x="260" y="220" width="92" height="92" rx="16" />
    <rect x="460" y="420" width="92" height="120" rx="18" />
  </g>
  <g transform="translate(430 150)" opacity="0.6">
    <path d="M160 0l148 52v150c0 86-63 171-148 214-85-43-148-128-148-214V52L160 0z" fill="url(#shieldGradient)" />
    <rect x="110" y="120" width="100" height="160" rx="18" fill="#ffffff" opacity="0.9" />
    <rect x="60" y="160" width="200" height="60" rx="16" fill="#ffffff" opacity="0.9" />
  </g>
  <g transform="translate(140 80)">
    <rect x="0" y="0" width="220" height="64" rx="32" fill="#1a66a8" opacity="0.8" />
    <rect x="30" y="20" width="160" height="24" rx="12" fill="#ffffff" opacity="0.8" />
  </g>
</svg>
